<mxfile host="app.diagrams.net" agent="Mozilla/5.0 (Windows NT 10.0; Win64; x64) AppleWebKit/537.36 (KHTML, like Gecko) Chrome/130.0.0.0 Safari/537.36" version="24.8.4">
  <diagram name="第 1 页" id="wwY3xmJCHLe45yV9o_6J">
    <mxGraphModel dx="2826" dy="1898" grid="1" gridSize="10" guides="1" tooltips="1" connect="1" arrows="1" fold="1" page="1" pageScale="1" pageWidth="827" pageHeight="1169" math="0" shadow="0">
      <root>
        <mxCell id="0" />
        <mxCell id="1" parent="0" />
        <mxCell id="V42VJBwkG84j1yjDxVRs-54" style="vsdxID=21;fillColor=none;gradientColor=none;shape=stencil(TY1LDoAgDAWvQnoBcOGu9C4kVCEqEMDf7Y2wYfkmeTNYnEksSs1x49vb6jT44Dj7CoRLzLzmeAZLmEx1hEe8WDwaFIhXw6xAEu4+NDapkcp+6OZ/jzLZsvQB);strokeColor=#5b9bd5;labelBackgroundColor=#ffffff;rounded=0;html=1;whiteSpace=wrap;" parent="1" vertex="1">
          <mxGeometry x="1340" y="700" width="201" height="20" as="geometry" />
        </mxCell>
        <mxCell id="imO23gWqiiUHGOybNOLo-2" value="" style="ellipse;fillColor=strokeColor;" parent="1" vertex="1">
          <mxGeometry x="1395" y="1090" width="14" height="14" as="geometry" />
        </mxCell>
        <mxCell id="imO23gWqiiUHGOybNOLo-3" value="Незарегистрированный" style="rounded=1;arcSize=40;strokeWidth=2" parent="1" vertex="1">
          <mxGeometry x="1348" y="1177" width="108" height="35" as="geometry" />
        </mxCell>
        <mxCell id="imO23gWqiiUHGOybNOLo-4" value="Registered" style="rounded=1;arcSize=40;strokeWidth=2" parent="1" vertex="1">
          <mxGeometry x="1356" y="1317" width="91" height="35" as="geometry" />
        </mxCell>
        <mxCell id="imO23gWqiiUHGOybNOLo-5" value="Браузинг" style="swimlane;fontStyle=1;align=center;verticalAlign=middle;startSize=25;container=0;collapsible=0;rounded=1;arcSize=14;dropTarget=0;" parent="1" vertex="1">
          <mxGeometry x="1204" y="1458" width="438" height="363" as="geometry" />
        </mxCell>
        <mxCell id="imO23gWqiiUHGOybNOLo-6" value="" style="ellipse;fillColor=strokeColor;" parent="1" vertex="1">
          <mxGeometry x="1466" y="1483" width="14" height="14" as="geometry" />
        </mxCell>
        <mxCell id="imO23gWqiiUHGOybNOLo-7" value="Вид категории" style="rounded=1;arcSize=40;strokeWidth=2" parent="1" vertex="1">
          <mxGeometry x="1345" y="1547" width="114" height="35" as="geometry" />
        </mxCell>
        <mxCell id="imO23gWqiiUHGOybNOLo-8" value="Результаты поиска" style="rounded=1;arcSize=40;strokeWidth=2" parent="1" vertex="1">
          <mxGeometry x="1245" y="1654" width="114" height="35" as="geometry" />
        </mxCell>
        <mxCell id="imO23gWqiiUHGOybNOLo-9" value="Список продуктов" style="rounded=1;arcSize=40;strokeWidth=2" parent="1" vertex="1">
          <mxGeometry x="1416" y="1654" width="97" height="35" as="geometry" />
        </mxCell>
        <mxCell id="imO23gWqiiUHGOybNOLo-10" value="Деталь продукта" style="rounded=1;arcSize=40;strokeWidth=2" parent="1" vertex="1">
          <mxGeometry x="1408" y="1762" width="113" height="35" as="geometry" />
        </mxCell>
        <mxCell id="imO23gWqiiUHGOybNOLo-11" value="Корзина" style="swimlane;fontStyle=1;align=center;verticalAlign=middle;startSize=25;container=0;collapsible=0;rounded=1;arcSize=14;dropTarget=0;verticalAlign=top;" parent="1" vertex="1">
          <mxGeometry x="1455" y="1894" width="176" height="310" as="geometry" />
        </mxCell>
        <mxCell id="imO23gWqiiUHGOybNOLo-12" value="" style="ellipse;fillColor=strokeColor;" parent="imO23gWqiiUHGOybNOLo-11" vertex="1">
          <mxGeometry x="89" y="46" width="14" height="14" as="geometry" />
        </mxCell>
        <mxCell id="imO23gWqiiUHGOybNOLo-13" value="Просмотр корзины" style="rounded=1;arcSize=40;strokeWidth=2" parent="imO23gWqiiUHGOybNOLo-11" vertex="1">
          <mxGeometry x="56" y="135" width="81" height="35" as="geometry" />
        </mxCell>
        <mxCell id="imO23gWqiiUHGOybNOLo-14" value="Редактировать количество" style="rounded=1;arcSize=40;strokeWidth=2" parent="imO23gWqiiUHGOybNOLo-11" vertex="1">
          <mxGeometry x="43" y="244" width="106" height="35" as="geometry" />
        </mxCell>
        <mxCell id="imO23gWqiiUHGOybNOLo-15" value="" style="curved=1;startArrow=none;;exitX=0.51;exitY=0.96;entryX=0.5;entryY=-0.01;rounded=0;" parent="imO23gWqiiUHGOybNOLo-11" source="imO23gWqiiUHGOybNOLo-12" target="imO23gWqiiUHGOybNOLo-13" edge="1">
          <mxGeometry relative="1" as="geometry">
            <Array as="points" />
          </mxGeometry>
        </mxCell>
        <mxCell id="imO23gWqiiUHGOybNOLo-16" value="" style="curved=1;startArrow=none;;exitX=0.36;exitY=0.98;entryX=0.4;entryY=0;rounded=0;" parent="imO23gWqiiUHGOybNOLo-11" source="imO23gWqiiUHGOybNOLo-13" target="imO23gWqiiUHGOybNOLo-14" edge="1">
          <mxGeometry relative="1" as="geometry">
            <Array as="points">
              <mxPoint x="62" y="207" />
            </Array>
          </mxGeometry>
        </mxCell>
        <mxCell id="imO23gWqiiUHGOybNOLo-17" value="" style="curved=1;startArrow=none;;exitX=0.6;exitY=0;entryX=0.63;entryY=0.98;rounded=0;" parent="imO23gWqiiUHGOybNOLo-11" source="imO23gWqiiUHGOybNOLo-14" target="imO23gWqiiUHGOybNOLo-13" edge="1">
          <mxGeometry relative="1" as="geometry">
            <Array as="points">
              <mxPoint x="130" y="207" />
            </Array>
          </mxGeometry>
        </mxCell>
        <mxCell id="imO23gWqiiUHGOybNOLo-18" value="Касса" style="rounded=1;arcSize=40;strokeWidth=2" parent="1" vertex="1">
          <mxGeometry x="1550" y="2276" width="83" height="35" as="geometry" />
        </mxCell>
        <mxCell id="imO23gWqiiUHGOybNOLo-19" value="Оплата" style="rounded=1;arcSize=40;strokeWidth=2" parent="1" vertex="1">
          <mxGeometry x="1504" y="2384" width="78" height="35" as="geometry" />
        </mxCell>
        <mxCell id="imO23gWqiiUHGOybNOLo-20" value="Обработка заказов" style="swimlane;fontStyle=1;align=center;verticalAlign=middle;startSize=25;container=0;collapsible=0;rounded=1;arcSize=14;dropTarget=0;" parent="1" vertex="1">
          <mxGeometry x="1250" y="2491" width="248" height="600" as="geometry" />
        </mxCell>
        <mxCell id="imO23gWqiiUHGOybNOLo-21" value="" style="ellipse;fillColor=strokeColor;" parent="1" vertex="1">
          <mxGeometry x="1401" y="2535" width="14" height="14" as="geometry" />
        </mxCell>
        <mxCell id="imO23gWqiiUHGOybNOLo-22" value="Заказ подтвержден" style="rounded=1;arcSize=40;strokeWidth=2" parent="1" vertex="1">
          <mxGeometry x="1332" y="2676" width="131" height="35" as="geometry" />
        </mxCell>
        <mxCell id="imO23gWqiiUHGOybNOLo-23" value="Обработка" style="rounded=1;arcSize=40;strokeWidth=2" parent="1" vertex="1">
          <mxGeometry x="1353" y="2816" width="90" height="35" as="geometry" />
        </mxCell>
        <mxCell id="imO23gWqiiUHGOybNOLo-24" value="Упаковка" style="rounded=1;arcSize=40;strokeWidth=2" parent="1" vertex="1">
          <mxGeometry x="1354" y="2923" width="86" height="35" as="geometry" />
        </mxCell>
        <mxCell id="imO23gWqiiUHGOybNOLo-25" value="Доставка" style="rounded=1;arcSize=40;strokeWidth=2" parent="1" vertex="1">
          <mxGeometry x="1309" y="3031" width="76" height="35" as="geometry" />
        </mxCell>
        <mxCell id="imO23gWqiiUHGOybNOLo-26" value="Доставлено" style="rounded=1;arcSize=40;strokeWidth=2" parent="1" vertex="1">
          <mxGeometry x="1305" y="3163" width="84" height="35" as="geometry" />
        </mxCell>
        <mxCell id="imO23gWqiiUHGOybNOLo-27" value="Обзор ожидается" style="swimlane;fontStyle=1;align=center;verticalAlign=middle;startSize=25;container=0;collapsible=0;rounded=1;arcSize=14;dropTarget=0;verticalAlign=top;" parent="1" vertex="1">
          <mxGeometry x="1252" y="3270" width="191" height="419" as="geometry" />
        </mxCell>
        <mxCell id="imO23gWqiiUHGOybNOLo-28" value="" style="ellipse;fillColor=strokeColor;" parent="imO23gWqiiUHGOybNOLo-27" vertex="1">
          <mxGeometry x="96" y="46" width="14" height="14" as="geometry" />
        </mxCell>
        <mxCell id="imO23gWqiiUHGOybNOLo-29" value="Обзор ожидания" style="rounded=1;arcSize=40;strokeWidth=2" parent="imO23gWqiiUHGOybNOLo-27" vertex="1">
          <mxGeometry x="43" y="135" width="121" height="35" as="geometry" />
        </mxCell>
        <mxCell id="imO23gWqiiUHGOybNOLo-30" value="Обзор ожидания" style="rounded=1;arcSize=40;strokeWidth=2" parent="imO23gWqiiUHGOybNOLo-27" vertex="1">
          <mxGeometry x="54.5" y="244" width="97" height="35" as="geometry" />
        </mxCell>
        <mxCell id="imO23gWqiiUHGOybNOLo-31" value="Предоставлено" style="rounded=1;arcSize=40;strokeWidth=2" parent="imO23gWqiiUHGOybNOLo-27" vertex="1">
          <mxGeometry x="59" y="354" width="90" height="35" as="geometry" />
        </mxCell>
        <mxCell id="imO23gWqiiUHGOybNOLo-32" value="" style="curved=1;startArrow=none;;exitX=0.52;exitY=0.96;entryX=0.5;entryY=-0.01;rounded=0;" parent="imO23gWqiiUHGOybNOLo-27" source="imO23gWqiiUHGOybNOLo-28" target="imO23gWqiiUHGOybNOLo-29" edge="1">
          <mxGeometry relative="1" as="geometry">
            <Array as="points" />
          </mxGeometry>
        </mxCell>
        <mxCell id="imO23gWqiiUHGOybNOLo-33" value="" style="curved=1;startArrow=none;;exitX=0.5;exitY=0.98;entryX=0.5;entryY=0;rounded=0;" parent="imO23gWqiiUHGOybNOLo-27" source="imO23gWqiiUHGOybNOLo-29" target="imO23gWqiiUHGOybNOLo-30" edge="1">
          <mxGeometry relative="1" as="geometry">
            <Array as="points" />
          </mxGeometry>
        </mxCell>
        <mxCell id="imO23gWqiiUHGOybNOLo-34" value="" style="curved=1;startArrow=none;;exitX=0.5;exitY=1;entryX=0.49;entryY=0;rounded=0;" parent="imO23gWqiiUHGOybNOLo-27" source="imO23gWqiiUHGOybNOLo-30" target="imO23gWqiiUHGOybNOLo-31" edge="1">
          <mxGeometry relative="1" as="geometry">
            <Array as="points" />
          </mxGeometry>
        </mxCell>
        <mxCell id="imO23gWqiiUHGOybNOLo-35" value="" style="ellipse;shape=endState;fillColor=strokeColor;" parent="1" vertex="1">
          <mxGeometry x="1340" y="3762" width="14" height="14" as="geometry" />
        </mxCell>
        <mxCell id="imO23gWqiiUHGOybNOLo-36" value="Guest has limited access&#xa;        to features" style="whiteSpace=wrap;strokeWidth=2;" parent="1" vertex="1">
          <mxGeometry x="1060" y="1284" width="261" height="101" as="geometry" />
        </mxCell>
        <mxCell id="imO23gWqiiUHGOybNOLo-37" value="Гость имеет ограниченный доступ к функциям" style="align=left;spacingLeft=4;" parent="1" vertex="1">
          <mxGeometry x="1095" y="1309" width="191" height="51" as="geometry" />
        </mxCell>
        <mxCell id="imO23gWqiiUHGOybNOLo-38" value="Supports multiple&#xa;        payment methods" style="whiteSpace=wrap;strokeWidth=2;" parent="1" vertex="1">
          <mxGeometry x="1532" y="2491" width="213" height="101" as="geometry" />
        </mxCell>
        <mxCell id="imO23gWqiiUHGOybNOLo-39" value="Поддержка нескольких&#xa; способов оплаты" style="align=left;spacingLeft=4;" parent="1" vertex="1">
          <mxGeometry x="1553" y="2508" width="158" height="67" as="geometry" />
        </mxCell>
        <mxCell id="imO23gWqiiUHGOybNOLo-40" value="Automated status&#xa;        updates via SMS/Push" style="whiteSpace=wrap;strokeWidth=2;" parent="1" vertex="1">
          <mxGeometry x="1518" y="2642" width="241" height="101" as="geometry" />
        </mxCell>
        <mxCell id="imO23gWqiiUHGOybNOLo-41" value="Автоматическое обновление&#xa; статуса через SMS/Push" style="align=left;spacingLeft=4;" parent="1" vertex="1">
          <mxGeometry x="1553" y="2667" width="171" height="51" as="geometry" />
        </mxCell>
        <mxCell id="imO23gWqiiUHGOybNOLo-42" value="Запуск приложения" style="curved=1;startArrow=none;;exitX=0.51;exitY=1;entryX=0.5;entryY=-0.01;rounded=0;" parent="1" source="imO23gWqiiUHGOybNOLo-2" target="imO23gWqiiUHGOybNOLo-3" edge="1">
          <mxGeometry relative="1" as="geometry">
            <Array as="points" />
          </mxGeometry>
        </mxCell>
        <mxCell id="imO23gWqiiUHGOybNOLo-43" value="Регистрация/Вход в систему" style="curved=1;startArrow=none;;exitX=0.5;exitY=0.98;entryX=0.51;entryY=0.01;rounded=0;" parent="1" source="imO23gWqiiUHGOybNOLo-3" target="imO23gWqiiUHGOybNOLo-4" edge="1">
          <mxGeometry relative="1" as="geometry">
            <Array as="points" />
          </mxGeometry>
        </mxCell>
        <mxCell id="imO23gWqiiUHGOybNOLo-44" value="" style="curved=1;startArrow=none;;exitX=-0.02;exitY=0.72;entryX=0.5;entryY=0;rounded=0;" parent="1" source="imO23gWqiiUHGOybNOLo-6" target="imO23gWqiiUHGOybNOLo-7" edge="1">
          <mxGeometry relative="1" as="geometry">
            <Array as="points">
              <mxPoint x="1402" y="1522" />
            </Array>
          </mxGeometry>
        </mxCell>
        <mxCell id="imO23gWqiiUHGOybNOLo-45" value="Поиск" style="curved=1;startArrow=none;;exitX=0.31;exitY=0.99;entryX=0.59;entryY=0.01;rounded=0;" parent="1" source="imO23gWqiiUHGOybNOLo-7" target="imO23gWqiiUHGOybNOLo-8" edge="1">
          <mxGeometry relative="1" as="geometry">
            <Array as="points">
              <mxPoint x="1335" y="1618" />
            </Array>
          </mxGeometry>
        </mxCell>
        <mxCell id="imO23gWqiiUHGOybNOLo-46" value="Назад" style="curved=1;startArrow=none;;exitX=0.41;exitY=0.01;entryX=0.13;entryY=0.99;rounded=0;" parent="1" source="imO23gWqiiUHGOybNOLo-8" target="imO23gWqiiUHGOybNOLo-7" edge="1">
          <mxGeometry relative="1" as="geometry">
            <Array as="points">
              <mxPoint x="1270" y="1618" />
            </Array>
          </mxGeometry>
        </mxCell>
        <mxCell id="imO23gWqiiUHGOybNOLo-47" value="Выберите категорию" style="curved=1;startArrow=none;;exitX=0.68;exitY=0.99;entryX=0.5;entryY=0.01;rounded=0;" parent="1" source="imO23gWqiiUHGOybNOLo-7" target="imO23gWqiiUHGOybNOLo-9" edge="1">
          <mxGeometry relative="1" as="geometry">
            <Array as="points">
              <mxPoint x="1465" y="1618" />
            </Array>
          </mxGeometry>
        </mxCell>
        <mxCell id="imO23gWqiiUHGOybNOLo-48" value="Выберите продукт" style="curved=1;startArrow=none;;exitX=0.5;exitY=1;entryX=0.5;entryY=-0.01;rounded=0;" parent="1" source="imO23gWqiiUHGOybNOLo-9" target="imO23gWqiiUHGOybNOLo-10" edge="1">
          <mxGeometry relative="1" as="geometry">
            <Array as="points" />
          </mxGeometry>
        </mxCell>
        <mxCell id="imO23gWqiiUHGOybNOLo-49" value="Подтвердить заказ" style="curved=1;startArrow=none;;exitX=0.5;exitY=1;entryX=0.7;entryY=-0.01;rounded=0;" parent="1" source="imO23gWqiiUHGOybNOLo-18" target="imO23gWqiiUHGOybNOLo-19" edge="1">
          <mxGeometry relative="1" as="geometry">
            <Array as="points">
              <mxPoint x="1592" y="2347" />
            </Array>
          </mxGeometry>
        </mxCell>
        <mxCell id="imO23gWqiiUHGOybNOLo-50" value="" style="curved=1;startArrow=none;;exitX=0.37;exitY=0.97;entryX=0.5;entryY=-0.01;rounded=0;" parent="1" source="imO23gWqiiUHGOybNOLo-21" target="imO23gWqiiUHGOybNOLo-22" edge="1">
          <mxGeometry relative="1" as="geometry">
            <Array as="points">
              <mxPoint x="1398" y="2592" />
            </Array>
          </mxGeometry>
        </mxCell>
        <mxCell id="imO23gWqiiUHGOybNOLo-51" value="Продавец принимает" style="curved=1;startArrow=none;;exitX=0.5;exitY=0.98;entryX=0.49;entryY=0;rounded=0;" parent="1" source="imO23gWqiiUHGOybNOLo-22" target="imO23gWqiiUHGOybNOLo-23" edge="1">
          <mxGeometry x="0.0095" relative="1" as="geometry">
            <Array as="points" />
            <mxPoint as="offset" />
          </mxGeometry>
        </mxCell>
        <mxCell id="imO23gWqiiUHGOybNOLo-52" value="Начать упаковку" style="curved=1;startArrow=none;;exitX=0.49;exitY=0.99;entryX=0.51;entryY=0.01;rounded=0;" parent="1" source="imO23gWqiiUHGOybNOLo-23" target="imO23gWqiiUHGOybNOLo-24" edge="1">
          <mxGeometry relative="1" as="geometry">
            <Array as="points" />
          </mxGeometry>
        </mxCell>
        <mxCell id="imO23gWqiiUHGOybNOLo-53" value="От руки до логистики" style="curved=1;startArrow=none;;exitX=0.51;exitY=1;entryX=0.72;entryY=-0.01;rounded=0;" parent="1" source="imO23gWqiiUHGOybNOLo-24" target="imO23gWqiiUHGOybNOLo-25" edge="1">
          <mxGeometry relative="1" as="geometry">
            <Array as="points">
              <mxPoint x="1398" y="2994" />
            </Array>
          </mxGeometry>
        </mxCell>
        <mxCell id="imO23gWqiiUHGOybNOLo-54" value="Пакет доставлен" style="curved=1;startArrow=none;;exitX=0.5;exitY=0.98;entryX=0.5;entryY=0;rounded=0;" parent="1" source="imO23gWqiiUHGOybNOLo-25" target="imO23gWqiiUHGOybNOLo-26" edge="1">
          <mxGeometry relative="1" as="geometry">
            <Array as="points" />
          </mxGeometry>
        </mxCell>
        <mxCell id="imO23gWqiiUHGOybNOLo-55" value="" style="curved=1;dashed=1;startArrow=none;;exitX=0;exitY=0.88;entryX=0.5;entryY=0;rounded=0;" parent="1" source="imO23gWqiiUHGOybNOLo-3" target="imO23gWqiiUHGOybNOLo-37" edge="1">
          <mxGeometry relative="1" as="geometry">
            <Array as="points">
              <mxPoint x="1191" y="1248" />
            </Array>
          </mxGeometry>
        </mxCell>
        <mxCell id="imO23gWqiiUHGOybNOLo-56" value="" style="curved=1;dashed=1;startArrow=none;;exitX=0.9;exitY=0.98;entryX=0.5;entryY=0;rounded=0;" parent="1" source="imO23gWqiiUHGOybNOLo-19" target="imO23gWqiiUHGOybNOLo-39" edge="1">
          <mxGeometry relative="1" as="geometry">
            <Array as="points">
              <mxPoint x="1639" y="2455" />
            </Array>
          </mxGeometry>
        </mxCell>
        <mxCell id="imO23gWqiiUHGOybNOLo-57" value="Просматривать как Гость" style="curved=1;startArrow=none;;rounded=0;" parent="1" source="imO23gWqiiUHGOybNOLo-3" target="imO23gWqiiUHGOybNOLo-5" edge="1">
          <mxGeometry relative="1" as="geometry">
            <Array as="points" />
          </mxGeometry>
        </mxCell>
        <mxCell id="imO23gWqiiUHGOybNOLo-58" value="Вход на главную страницу" style="curved=1;startArrow=none;;rounded=0;" parent="1" source="imO23gWqiiUHGOybNOLo-4" target="imO23gWqiiUHGOybNOLo-5" edge="1">
          <mxGeometry x="-0.0025" relative="1" as="geometry">
            <Array as="points" />
            <mxPoint as="offset" />
          </mxGeometry>
        </mxCell>
        <mxCell id="imO23gWqiiUHGOybNOLo-59" value="Посмотреть корзину" style="curved=1;startArrow=none;;rounded=0;" parent="1" source="imO23gWqiiUHGOybNOLo-5" target="imO23gWqiiUHGOybNOLo-11" edge="1">
          <mxGeometry x="0.234" y="21" relative="1" as="geometry">
            <Array as="points" />
            <mxPoint as="offset" />
          </mxGeometry>
        </mxCell>
        <mxCell id="imO23gWqiiUHGOybNOLo-60" value="Добавить в корзину" style="curved=1;startArrow=none;;exitX=0.5;exitY=0.98;entryX=0.14;entryY=0;rounded=0;" parent="1" source="imO23gWqiiUHGOybNOLo-10" target="imO23gWqiiUHGOybNOLo-11" edge="1">
          <mxGeometry relative="1" as="geometry">
            <Array as="points">
              <mxPoint x="1465" y="1858" />
            </Array>
          </mxGeometry>
        </mxCell>
        <mxCell id="imO23gWqiiUHGOybNOLo-61" value="Приступить к оформлению заказа" style="curved=1;startArrow=none;;exitX=0.72;exitY=1;entryX=0.5;entryY=0.01;rounded=0;" parent="1" source="imO23gWqiiUHGOybNOLo-11" target="imO23gWqiiUHGOybNOLo-18" edge="1">
          <mxGeometry relative="1" as="geometry">
            <Array as="points">
              <mxPoint x="1592" y="2240" />
            </Array>
          </mxGeometry>
        </mxCell>
        <mxCell id="imO23gWqiiUHGOybNOLo-62" value="Платеж не прошел" style="curved=1;startArrow=none;;exitX=0.15;exitY=-0.01;entryX=0.11;entryY=1;rounded=0;" parent="1" source="imO23gWqiiUHGOybNOLo-19" target="imO23gWqiiUHGOybNOLo-11" edge="1">
          <mxGeometry relative="1" as="geometry">
            <Array as="points">
              <mxPoint x="1458" y="2347" />
              <mxPoint x="1458" y="2240" />
            </Array>
          </mxGeometry>
        </mxCell>
        <mxCell id="imO23gWqiiUHGOybNOLo-63" value="Успех оплаты" style="curved=1;startArrow=none;;rounded=0;" parent="1" source="imO23gWqiiUHGOybNOLo-19" target="imO23gWqiiUHGOybNOLo-20" edge="1">
          <mxGeometry relative="1" as="geometry">
            <Array as="points" />
          </mxGeometry>
        </mxCell>
        <mxCell id="imO23gWqiiUHGOybNOLo-64" value="" style="curved=1;startArrow=none;;rounded=0;" parent="1" source="imO23gWqiiUHGOybNOLo-20" target="imO23gWqiiUHGOybNOLo-25" edge="1">
          <mxGeometry relative="1" as="geometry">
            <Array as="points" />
          </mxGeometry>
        </mxCell>
        <mxCell id="imO23gWqiiUHGOybNOLo-65" value="Доставка подтверждена" style="curved=1;startArrow=none;;exitX=0.5;exitY=0.99;entryX=0.5;entryY=0;rounded=0;" parent="1" source="imO23gWqiiUHGOybNOLo-26" target="imO23gWqiiUHGOybNOLo-27" edge="1">
          <mxGeometry relative="1" as="geometry">
            <Array as="points" />
          </mxGeometry>
        </mxCell>
        <mxCell id="imO23gWqiiUHGOybNOLo-66" value="Обзор завершен" style="curved=1;startArrow=none;;exitX=0.5;exitY=1;entryX=0.51;entryY=0.03;rounded=0;" parent="1" source="imO23gWqiiUHGOybNOLo-27" target="imO23gWqiiUHGOybNOLo-35" edge="1">
          <mxGeometry relative="1" as="geometry">
            <Array as="points" />
          </mxGeometry>
        </mxCell>
        <mxCell id="imO23gWqiiUHGOybNOLo-67" value="" style="curved=1;dashed=1;startArrow=none;;rounded=0;" parent="1" source="imO23gWqiiUHGOybNOLo-20" target="imO23gWqiiUHGOybNOLo-41" edge="1">
          <mxGeometry relative="1" as="geometry">
            <Array as="points" />
          </mxGeometry>
        </mxCell>
        <mxCell id="V42VJBwkG84j1yjDxVRs-23" parent="0" />
        <mxCell id="V42VJBwkG84j1yjDxVRs-24" value="&lt;font style=&quot;font-size:16px;font-family:SimSun;color:#73ae42;direction:ltr;letter-spacing:0px;line-height:120.00001%;opacity:1&quot;&gt;Customer&#xa;&lt;/font&gt;" style="verticalAlign=middle;align=center;vsdxID=1;fillColor=#73ae42;gradientColor=none;shape=stencil(nZJdDoIwEISv0uw7v4JCUnqXRgs0VkqWKnh7KagBU4nxsV+n29nJ0K7mrSCdQX0WvTyZugDZ1AKlAUZLjaJCfW1OjLbc1Ixe9E2QoYA4BHIvIApDCBhVslnS1AUPK/id7VYsmmGcLmHugtaK673rp2wDpi74sWe6Rfc/SNfxvUPN/Wj/vLCc45HgtISfxEDQugMrPIR+lryEZPD4IDsPteFG6mYKUnGshDcO8ErFq1EHpOuFaJ/H7fErH3+PD+bGlFKpuV6WLRsVTN1jDw==);strokeColor=#ffffff;labelBackgroundColor=none;rounded=0;html=1;whiteSpace=wrap;" parent="V42VJBwkG84j1yjDxVRs-23" vertex="1">
          <mxGeometry x="1301" y="667" width="48" height="100" as="geometry" />
        </mxCell>
        <mxCell id="V42VJBwkG84j1yjDxVRs-25" value="&lt;font style=&quot;font-size:16px;font-family:SimSun;color:#73ae42;direction:ltr;letter-spacing:0px;line-height:120.00001%;opacity:1&quot;&gt;Merchant&#xa;&lt;/font&gt;" style="verticalAlign=middle;align=center;vsdxID=2;fillColor=#73ae42;gradientColor=none;shape=stencil(nZJdDoIwEISv0uw7v4JCUnqXRgs0VkqWKnh7KagBU4nxsV+n29nJ0K7mrSCdQX0WvTyZugDZ1AKlAUZLjaJCfW1OjLbc1Ixe9E2QoYA4BHIvIApDCBhVslnS1AUPK/id7VYsmmGcLmHugtaK673rp2wDpi74sWe6Rfc/SNfxvUPN/Wj/vLCc45HgtISfxEDQugMrPIR+lryEZPD4IDsPteFG6mYKUnGshDcO8ErFq1EHpOuFaJ/H7fErH3+PD+bGlFKpuV6WLRsVTN1jDw==);strokeColor=#ffffff;labelBackgroundColor=none;rounded=0;html=1;whiteSpace=wrap;" parent="V42VJBwkG84j1yjDxVRs-23" vertex="1">
          <mxGeometry x="1776" y="667" width="48" height="100" as="geometry" />
        </mxCell>
        <mxCell id="V42VJBwkG84j1yjDxVRs-26" value="&lt;font style=&quot;font-size:16px;font-family:SimSun;color:#73ae42;direction:ltr;letter-spacing:0px;line-height:120.00001%;opacity:1&quot;&gt;Admin&#xa;&lt;/font&gt;" style="verticalAlign=middle;align=center;vsdxID=3;fillColor=#73ae42;gradientColor=none;shape=stencil(nZJdDoIwEISv0uw7v4JCUnqXRgs0VkqWKnh7KagBU4nxsV+n29nJ0K7mrSCdQX0WvTyZugDZ1AKlAUZLjaJCfW1OjLbc1Ixe9E2QoYA4BHIvIApDCBhVslnS1AUPK/id7VYsmmGcLmHugtaK673rp2wDpi74sWe6Rfc/SNfxvUPN/Wj/vLCc45HgtISfxEDQugMrPIR+lryEZPD4IDsPteFG6mYKUnGshDcO8ErFq1EHpOuFaJ/H7fErH3+PD+bGlFKpuV6WLRsVTN1jDw==);strokeColor=#ffffff;labelBackgroundColor=none;rounded=0;html=1;whiteSpace=wrap;" parent="V42VJBwkG84j1yjDxVRs-23" vertex="1">
          <mxGeometry x="1776" y="913" width="48" height="100" as="geometry" />
        </mxCell>
        <mxCell id="V42VJBwkG84j1yjDxVRs-27" value="&lt;font style=&quot;font-size:16px;font-family:SimSun;color:#ffffff;direction:ltr;letter-spacing:0px;line-height:120.00001%;opacity:1&quot;&gt;Browse Products&#xa;&lt;/font&gt;" style="verticalAlign=middle;align=center;vsdxID=4;fillColor=#5b9bd5;gradientColor=none;shape=stencil(pZDBDsIgEER/ZbN3UjTpDfiXjd0WIkKzoG3/vmiN8eTF02ZeZieZMcXTzFCq5CsvYajeYkieJVR0ZszCk+R7GpyZqXpnbvnBsFpUGmGz2GvsnCG5gDR47hFkO26TJ/0xwapoDUVJrlRDThYbiyQTq/asxkhT8yOUhXl+y1/R6v/k7ig0hhiP9k/2Xbh7TeN2);strokeColor=#ffffff;labelBackgroundColor=none;rounded=0;html=1;whiteSpace=wrap;" parent="V42VJBwkG84j1yjDxVRs-23" vertex="1">
          <mxGeometry x="1040" y="570" width="160" height="48" as="geometry" />
        </mxCell>
        <mxCell id="V42VJBwkG84j1yjDxVRs-28" value="&lt;font style=&quot;font-size:16px;font-family:SimSun;color:#ffffff;direction:ltr;letter-spacing:0px;line-height:120.00001%;opacity:1&quot;&gt;Search Products&#xa;&lt;/font&gt;" style="verticalAlign=middle;align=center;vsdxID=5;fillColor=#5b9bd5;gradientColor=none;shape=stencil(pZDBDsIgEER/ZbN3UjTpDfiXjd0WIkKzoG3/vmiN8eTF02ZeZieZMcXTzFCq5CsvYajeYkieJVR0ZszCk+R7GpyZqXpnbvnBsFpUGmGz2GvsnCG5gDR47hFkO26TJ/0xwapoDUVJrlRDThYbiyQTq/asxkhT8yOUhXl+y1/R6v/k7ig0hhiP9k/2Xbh7TeN2);strokeColor=#ffffff;labelBackgroundColor=none;rounded=0;html=1;whiteSpace=wrap;" parent="V42VJBwkG84j1yjDxVRs-23" vertex="1">
          <mxGeometry x="1245" y="570" width="160" height="48" as="geometry" />
        </mxCell>
        <mxCell id="V42VJBwkG84j1yjDxVRs-29" value="&lt;font style=&quot;font-size:16px;font-family:SimSun;color:#ffffff;direction:ltr;letter-spacing:0px;line-height:120.00001%;opacity:1&quot;&gt;Manage Cart&#xa;&lt;/font&gt;" style="verticalAlign=middle;align=center;vsdxID=6;fillColor=#5b9bd5;gradientColor=none;shape=stencil(pZDBDsIgEER/ZbN3UjTpDfiXjd0WIkKzoG3/vmiN8eTF02ZeZieZMcXTzFCq5CsvYajeYkieJVR0ZszCk+R7GpyZqXpnbvnBsFpUGmGz2GvsnCG5gDR47hFkO26TJ/0xwapoDUVJrlRDThYbiyQTq/asxkhT8yOUhXl+y1/R6v/k7ig0hhiP9k/2Xbh7TeN2);strokeColor=#ffffff;labelBackgroundColor=none;rounded=0;html=1;whiteSpace=wrap;" parent="V42VJBwkG84j1yjDxVRs-23" vertex="1">
          <mxGeometry x="1444" y="570" width="160" height="48" as="geometry" />
        </mxCell>
        <mxCell id="V42VJBwkG84j1yjDxVRs-30" value="&lt;font style=&quot;font-size:16px;font-family:SimSun;color:#ffffff;direction:ltr;letter-spacing:0px;line-height:120.00001%;opacity:1&quot;&gt;Place Order&#xa;&lt;/font&gt;" style="verticalAlign=middle;align=center;vsdxID=7;fillColor=#5b9bd5;gradientColor=none;shape=stencil(pZDBDsIgEER/ZbN3UjTpDfiXjd0WIkKzoG3/vmiN8eTF02ZeZieZMcXTzFCq5CsvYajeYkieJVR0ZszCk+R7GpyZqXpnbvnBsFpUGmGz2GvsnCG5gDR47hFkO26TJ/0xwapoDUVJrlRDThYbiyQTq/asxkhT8yOUhXl+y1/R6v/k7ig0hhiP9k/2Xbh7TeN2);strokeColor=#ffffff;labelBackgroundColor=none;rounded=0;html=1;whiteSpace=wrap;" parent="V42VJBwkG84j1yjDxVRs-23" vertex="1">
          <mxGeometry x="1444" y="816" width="160" height="48" as="geometry" />
        </mxCell>
        <mxCell id="V42VJBwkG84j1yjDxVRs-31" value="&lt;font style=&quot;font-size:16px;font-family:SimSun;color:#ffffff;direction:ltr;letter-spacing:0px;line-height:120.00001%;opacity:1&quot;&gt;Track Orders&#xa;&lt;/font&gt;" style="verticalAlign=middle;align=center;vsdxID=8;fillColor=#5b9bd5;gradientColor=none;shape=stencil(pZDBDsIgEER/ZbN3UjTpDfiXjd0WIkKzoG3/vmiN8eTF02ZeZieZMcXTzFCq5CsvYajeYkieJVR0ZszCk+R7GpyZqXpnbvnBsFpUGmGz2GvsnCG5gDR47hFkO26TJ/0xwapoDUVJrlRDThYbiyQTq/asxkhT8yOUhXl+y1/R6v/k7ig0hhiP9k/2Xbh7TeN2);strokeColor=#ffffff;labelBackgroundColor=none;rounded=0;html=1;whiteSpace=wrap;" parent="V42VJBwkG84j1yjDxVRs-23" vertex="1">
          <mxGeometry x="1040" y="693" width="160" height="48" as="geometry" />
        </mxCell>
        <mxCell id="V42VJBwkG84j1yjDxVRs-32" value="&lt;font style=&quot;font-size:16px;font-family:SimSun;color:#ffffff;direction:ltr;letter-spacing:0px;line-height:120.00001%;opacity:1&quot;&gt;Rate Products&#xa;&lt;/font&gt;" style="verticalAlign=middle;align=center;vsdxID=9;fillColor=#5b9bd5;gradientColor=none;shape=stencil(pZDBDsIgEER/ZbN3UjTpDfiXjd0WIkKzoG3/vmiN8eTF02ZeZieZMcXTzFCq5CsvYajeYkieJVR0ZszCk+R7GpyZqXpnbvnBsFpUGmGz2GvsnCG5gDR47hFkO26TJ/0xwapoDUVJrlRDThYbiyQTq/asxkhT8yOUhXl+y1/R6v/k7ig0hhiP9k/2Xbh7TeN2);strokeColor=#ffffff;labelBackgroundColor=none;rounded=0;html=1;whiteSpace=wrap;" parent="V42VJBwkG84j1yjDxVRs-23" vertex="1">
          <mxGeometry x="1040" y="816" width="160" height="48" as="geometry" />
        </mxCell>
        <mxCell id="V42VJBwkG84j1yjDxVRs-33" value="&lt;font style=&quot;font-size:16px;font-family:SimSun;color:#ffffff;direction:ltr;letter-spacing:0px;line-height:120.00001%;opacity:1&quot;&gt;Rate Products&#xa;&lt;/font&gt;" style="verticalAlign=middle;align=center;vsdxID=10;fillColor=#5b9bd5;gradientColor=none;shape=stencil(pZDBDsIgEER/ZbN3UjTpDfiXjd0WIkKzoG3/vmiN8eTF02ZeZieZMcXTzFCq5CsvYajeYkieJVR0ZszCk+R7GpyZqXpnbvnBsFpUGmGz2GvsnCG5gDR47hFkO26TJ/0xwapoDUVJrlRDThYbiyQTq/asxkhT8yOUhXl+y1/R6v/k7ig0hhiP9k/2Xbh7TeN2);strokeColor=#ffffff;labelBackgroundColor=none;rounded=0;html=1;whiteSpace=wrap;" parent="V42VJBwkG84j1yjDxVRs-23" vertex="1">
          <mxGeometry x="1245" y="816" width="160" height="48" as="geometry" />
        </mxCell>
        <mxCell id="V42VJBwkG84j1yjDxVRs-34" value="&lt;font style=&quot;font-size:16px;font-family:SimSun;color:#ffffff;direction:ltr;letter-spacing:0px;line-height:120.00001%;opacity:1&quot;&gt;Manage Inventory&#xa;&lt;/font&gt;" style="verticalAlign=middle;align=center;vsdxID=56;fillColor=#5b9bd5;gradientColor=none;shape=stencil(pZDBDsIgEER/ZbN3UjTpDfiXjd0WIkKzoG3/vmiN8eTF02ZeZieZMcXTzFCq5CsvYajeYkieJVR0ZszCk+R7GpyZqXpnbvnBsFpUGmGz2GvsnCG5gDR47hFkO26TJ/0xwapoDUVJrlRDThYbiyQTq/asxkhT8yOUhXl+y1/R6v/k7ig0hhiP9k/2Xbh7TeN2);strokeColor=#ffffff;labelBackgroundColor=none;rounded=0;html=1;whiteSpace=wrap;" parent="V42VJBwkG84j1yjDxVRs-23" vertex="1">
          <mxGeometry x="1908" y="693" width="160" height="48" as="geometry" />
        </mxCell>
        <mxCell id="V42VJBwkG84j1yjDxVRs-35" value="&lt;font style=&quot;font-size:16px;font-family:SimSun;color:#ffffff;direction:ltr;letter-spacing:0px;line-height:120.00001%;opacity:1&quot;&gt;Process Orders&#xa;&lt;/font&gt;" style="verticalAlign=middle;align=center;vsdxID=57;fillColor=#5b9bd5;gradientColor=none;shape=stencil(pZDBDsIgEER/ZbN3UjTpDfiXjd0WIkKzoG3/vmiN8eTF02ZeZieZMcXTzFCq5CsvYajeYkieJVR0ZszCk+R7GpyZqXpnbvnBsFpUGmGz2GvsnCG5gDR47hFkO26TJ/0xwapoDUVJrlRDThYbiyQTq/asxkhT8yOUhXl+y1/R6v/k7ig0hhiP9k/2Xbh7TeN2);strokeColor=#ffffff;labelBackgroundColor=none;rounded=0;html=1;whiteSpace=wrap;" parent="V42VJBwkG84j1yjDxVRs-23" vertex="1">
          <mxGeometry x="1531" y="693" width="160" height="48" as="geometry" />
        </mxCell>
        <mxCell id="V42VJBwkG84j1yjDxVRs-36" value="&lt;font style=&quot;font-size:16px;font-family:SimSun;color:#ffffff;direction:ltr;letter-spacing:0px;line-height:120.00001%;opacity:1&quot;&gt;View Analytics&#xa;&lt;/font&gt;" style="verticalAlign=middle;align=center;vsdxID=58;fillColor=#5b9bd5;gradientColor=none;shape=stencil(pZDBDsIgEER/ZbN3UjTpDfiXjd0WIkKzoG3/vmiN8eTF02ZeZieZMcXTzFCq5CsvYajeYkieJVR0ZszCk+R7GpyZqXpnbvnBsFpUGmGz2GvsnCG5gDR47hFkO26TJ/0xwapoDUVJrlRDThYbiyQTq/asxkhT8yOUhXl+y1/R6v/k7ig0hhiP9k/2Xbh7TeN2);strokeColor=#ffffff;labelBackgroundColor=none;rounded=0;html=1;whiteSpace=wrap;" parent="V42VJBwkG84j1yjDxVRs-23" vertex="1">
          <mxGeometry x="1720" y="816" width="160" height="48" as="geometry" />
        </mxCell>
        <mxCell id="V42VJBwkG84j1yjDxVRs-37" value="&lt;font style=&quot;font-size:16px;font-family:SimSun;color:#ffffff;direction:ltr;letter-spacing:0px;line-height:120.00001%;opacity:1&quot;&gt;Manage Users&#xa;&lt;/font&gt;" style="verticalAlign=middle;align=center;vsdxID=59;fillColor=#5b9bd5;gradientColor=none;shape=stencil(pZDBDsIgEER/ZbN3UjTpDfiXjd0WIkKzoG3/vmiN8eTF02ZeZieZMcXTzFCq5CsvYajeYkieJVR0ZszCk+R7GpyZqXpnbvnBsFpUGmGz2GvsnCG5gDR47hFkO26TJ/0xwapoDUVJrlRDThYbiyQTq/asxkhT8yOUhXl+y1/R6v/k7ig0hhiP9k/2Xbh7TeN2);strokeColor=#ffffff;labelBackgroundColor=none;rounded=0;html=1;whiteSpace=wrap;" parent="V42VJBwkG84j1yjDxVRs-23" vertex="1">
          <mxGeometry x="1531" y="939" width="160" height="48" as="geometry" />
        </mxCell>
        <mxCell id="V42VJBwkG84j1yjDxVRs-38" value="&lt;font style=&quot;font-size:16px;font-family:SimSun;color:#ffffff;direction:ltr;letter-spacing:0px;line-height:120.00001%;opacity:1&quot;&gt;System Maintenance&#xa;&lt;/font&gt;" style="verticalAlign=middle;align=center;vsdxID=60;fillColor=#5b9bd5;gradientColor=none;shape=stencil(pZDBDsIgEER/ZbN3UjTpDfiXjd0WIkKzoG3/vmiN8eTF02ZeZieZMcXTzFCq5CsvYajeYkieJVR0ZszCk+R7GpyZqXpnbvnBsFpUGmGz2GvsnCG5gDR47hFkO26TJ/0xwapoDUVJrlRDThYbiyQTq/asxkhT8yOUhXl+y1/R6v/k7ig0hhiP9k/2Xbh7TeN2);strokeColor=#ffffff;labelBackgroundColor=none;rounded=0;html=1;whiteSpace=wrap;" parent="V42VJBwkG84j1yjDxVRs-23" vertex="1">
          <mxGeometry x="1908" y="939" width="160" height="48" as="geometry" />
        </mxCell>
        <mxCell id="V42VJBwkG84j1yjDxVRs-39" value="连接线" parent="0" />
        <mxCell id="V42VJBwkG84j1yjDxVRs-40" style="vsdxID=11;fillColor=none;gradientColor=none;shape=stencil(TY07DoAgEAWvQrY3YGG37F1IWIWoQAB/tzdKQ/kmeTNYnEksSs1x5cvb6jT44Dj7CoRzzLzkeARLmEx1hHs8WdwaJgXi0TAqBZJw86Gnww9lezT1t3ub/Lv0Ag==);strokeColor=#5b9bd5;labelBackgroundColor=#ffffff;rounded=0;html=1;whiteSpace=wrap;;flipV=1;" parent="V42VJBwkG84j1yjDxVRs-39" vertex="1">
          <mxGeometry x="1315" y="618" width="20" height="49" as="geometry" />
        </mxCell>
        <mxCell id="V42VJBwkG84j1yjDxVRs-41" style="vsdxID=16;fillColor=none;gradientColor=none;shape=stencil(TY1LDoAgDAWvQnoBcF96FxKqNCoQwN/tDbhxOZO8eViDy6xqK2nlS3wLFiQGLtKAcE6Fl5KO6Amza4FwTyer24IB9ViYjAFNuEkcsmPXQ+pv8JU7/2N63NIL);strokeColor=#5b9bd5;labelBackgroundColor=#ffffff;rounded=0;html=1;whiteSpace=wrap;;flipV=1;" parent="V42VJBwkG84j1yjDxVRs-39" vertex="1">
          <mxGeometry x="1155" y="614" width="145" height="88" as="geometry" />
        </mxCell>
        <mxCell id="V42VJBwkG84j1yjDxVRs-42" style="vsdxID=21;fillColor=none;gradientColor=none;shape=stencil(TY1LDoAgDAWvQnoBcOGu9C4kVCEqEMDf7Y2wYfkmeTNYnEksSs1x49vb6jT44Dj7CoRLzLzmeAZLmEx1hEe8WDwaFIhXw6xAEu4+NDapkcp+6OZ/jzLZsvQB);strokeColor=#5b9bd5;labelBackgroundColor=#ffffff;rounded=0;html=1;whiteSpace=wrap;" parent="V42VJBwkG84j1yjDxVRs-39" vertex="1">
          <mxGeometry x="1200" y="707" width="101" height="20" as="geometry" />
        </mxCell>
        <mxCell id="V42VJBwkG84j1yjDxVRs-43" style="vsdxID=26;fillColor=none;gradientColor=none;shape=stencil(TY1LDoAgDAWvQnoBcF96FxKqNCoQwN/tDbhxOZO8eViDy6xqK2nlS3wLFiQGLtKAcE6Fl5KO6Amza4FwTyer24IB9ViYjAFNuEkcsmPXQ+pv8JU7/2N63NIL);strokeColor=#5b9bd5;labelBackgroundColor=#ffffff;rounded=0;html=1;whiteSpace=wrap;" parent="V42VJBwkG84j1yjDxVRs-39" vertex="1">
          <mxGeometry x="1155" y="731" width="145" height="87" as="geometry" />
        </mxCell>
        <mxCell id="V42VJBwkG84j1yjDxVRs-44" style="vsdxID=31;fillColor=none;gradientColor=none;shape=stencil(TY07DoAgEAWvQrY3YGG37F1IWIWoQAB/tzdKQ/kmeTNYnEksSs1x5cvb6jT44Dj7CoRzzLzkeARLmEx1hHs8WdwaJgXi0TAqBZJw86Gnww9lezT1t3ub/Lv0Ag==);strokeColor=#5b9bd5;labelBackgroundColor=#ffffff;rounded=0;html=1;whiteSpace=wrap;;flipV=1;;flipH=1;" parent="V42VJBwkG84j1yjDxVRs-39" vertex="1">
          <mxGeometry x="1315" y="791" width="20" height="25" as="geometry" />
        </mxCell>
        <mxCell id="V42VJBwkG84j1yjDxVRs-45" style="vsdxID=36;fillColor=none;gradientColor=none;shape=stencil(TY07DoAgEAWvQrY3YGG37F1IWIWoQAB/tzdKQ/kmeTNYnEksSs1x5cvb6jT44Dj7CoRzzLzkeARLmEx1hHs8WdwaBgXi0TApkISbDz8cVU9lezT1t3ub/Lv0Ag==);strokeColor=#5b9bd5;labelBackgroundColor=#ffffff;rounded=0;html=1;whiteSpace=wrap;;flipH=1;" parent="V42VJBwkG84j1yjDxVRs-39" vertex="1">
          <mxGeometry x="1823" y="953" width="85" height="20" as="geometry" />
        </mxCell>
        <mxCell id="V42VJBwkG84j1yjDxVRs-46" style="vsdxID=41;fillColor=none;gradientColor=none;shape=stencil(TY07DoAgEAWvQrY3YGG37F1IWIWoQAB/tzdKQ/kmeTNYnEksSs1x5cvb6jT44Dj7CoRzzLzkeARLmEx1hHs8WdwaJgXi0TAqBZJw86Gnww9lezT1t3ub/Lv0Ag==);strokeColor=#5b9bd5;labelBackgroundColor=#ffffff;rounded=0;html=1;whiteSpace=wrap;;flipV=1;" parent="V42VJBwkG84j1yjDxVRs-39" vertex="1">
          <mxGeometry x="1790" y="864" width="20" height="49" as="geometry" />
        </mxCell>
        <mxCell id="V42VJBwkG84j1yjDxVRs-47" style="vsdxID=46;fillColor=none;gradientColor=none;shape=stencil(TY1LDoAgDAWvQnoBcF96FxKqNCoQwN/tDbhxOZO8eViDy6xqK2nlS3wLFiQGLtKAcE6Fl5KO6Amza4FwTyer24IB9ViYjAFNuEkcsmPXQ+pv8JU7/2N63NIL);strokeColor=#5b9bd5;labelBackgroundColor=#ffffff;rounded=0;html=1;whiteSpace=wrap;;flipV=1;" parent="V42VJBwkG84j1yjDxVRs-39" vertex="1">
          <mxGeometry x="1349" y="731" width="139" height="87" as="geometry" />
        </mxCell>
        <mxCell id="V42VJBwkG84j1yjDxVRs-48" style="vsdxID=51;fillColor=none;gradientColor=none;shape=stencil(TY07DoAgEAWvQrY3YL/sXUhYhahAAH+3N0BjOZO8eVicSSxKzXHj29vqNPjgOPsKhEvMvOZ4BkuYTHWER7xYPBomBeLVMCsFknD3oduGTXcpx2KkG/9rsv/SBw==);strokeColor=#5b9bd5;labelBackgroundColor=#ffffff;rounded=0;html=1;whiteSpace=wrap;;flipV=1;;flipH=1;" parent="V42VJBwkG84j1yjDxVRs-39" vertex="1">
          <mxGeometry x="1349" y="615" width="140" height="87" as="geometry" />
        </mxCell>
        <mxCell id="V42VJBwkG84j1yjDxVRs-49" style="vsdxID=182;fillColor=none;gradientColor=none;shape=stencil(TY07DoAgEAWvQrY3YGG37F1IWIWoQAB/tzdKQ/kmeTNYnEksSs1x5cvb6jT44Dj7CoRzzLzkeARLmEx1hHs8WdwaJgXi0TAqBZJw86Gnww9lezT1t3ub/Lv0Ag==);strokeColor=#5b9bd5;labelBackgroundColor=#ffffff;rounded=0;html=1;whiteSpace=wrap;;flipV=1;" parent="V42VJBwkG84j1yjDxVRs-39" vertex="1">
          <mxGeometry x="1790" y="791" width="20" height="25" as="geometry" />
        </mxCell>
        <mxCell id="V42VJBwkG84j1yjDxVRs-50" style="vsdxID=187;fillColor=none;gradientColor=none;shape=stencil(TY1LDoAgDAWvQnoBcOGu9C4kVCEqEMDf7Y2wYfkmeTNYnEksSs1x49vb6jT44Dj7CoRLzLzmeAZLmEx1hEe8WDwaFIhXw6xAEu4+NDapkcp+6OZ/jzLZsvQB);strokeColor=#5b9bd5;labelBackgroundColor=#ffffff;rounded=0;html=1;whiteSpace=wrap;" parent="V42VJBwkG84j1yjDxVRs-39" vertex="1">
          <mxGeometry x="1824" y="707" width="84" height="20" as="geometry" />
        </mxCell>
        <mxCell id="V42VJBwkG84j1yjDxVRs-51" style="vsdxID=198;fillColor=none;gradientColor=none;shape=stencil(TY07DoAgEAWvQrY3YGG37F1IWIWoQAB/tzdKQ/kmeTNYnEksSs1x5cvb6jT44Dj7CoRzzLzkeARLmEx1hHs8WdwaBgXi0TApkISbDz8cVU9lezT1t3ub/Lv0Ag==);strokeColor=#5b9bd5;labelBackgroundColor=#ffffff;rounded=0;html=1;whiteSpace=wrap;;flipH=1;" parent="V42VJBwkG84j1yjDxVRs-39" vertex="1">
          <mxGeometry x="1691" y="953" width="85" height="20" as="geometry" />
        </mxCell>
        <mxCell id="V42VJBwkG84j1yjDxVRs-52" style="vsdxID=197;edgeStyle=none;startArrow=none;endArrow=none;startSize=5;endSize=5;strokeColor=#5088bb;spacingTop=0;spacingBottom=0;spacingLeft=0;spacingRight=0;verticalAlign=middle;html=1;labelBackgroundColor=#ffffff;rounded=0;exitX=1;exitY=0.5;exitDx=0;exitDy=0;exitPerimeter=0;entryX=0;entryY=0.5;entryDx=0;entryDy=0;entryPerimeter=0" parent="V42VJBwkG84j1yjDxVRs-39" source="V42VJBwkG84j1yjDxVRs-35" target="V42VJBwkG84j1yjDxVRs-25" edge="1">
          <mxGeometry relative="1" as="geometry">
            <mxPoint x="1691" y="717" as="sourcePoint" />
            <mxPoint x="1776" y="717" as="targetPoint" />
            <Array capacity="4" as="points" />
            <mxPoint as="offset" />
          </mxGeometry>
        </mxCell>
      </root>
    </mxGraphModel>
  </diagram>
</mxfile>
